# xmcd
#
# Track frame offsets: 
#        150
#        11529
#        25215
#        38100
#        49832
#        60885
#        71414
#        82880
#        96005
#        107859
#
# Disc length: 1618 seconds
#
# Revision: 1
# Processed by: cddbd v1.5.2PL0 Copyright (c) Steve Scherf et al.
# Submitted via: ExactAudioCopy v0.95b4
#
DISCID=7006500a
DTITLE=Dale Watson - From The Cradle To The Grave
DYEAR=2007
DGENRE=Country
TTITLE0=Justice For All
TTITLE1=It's Not Over Now
TTITLE2=Time Without You
TTITLE3=Hollywood Hillbilly
TTITLE4=You Always Get What You Always Got
TTITLE5=From The Cradle To The Grave
TTITLE6=Why Oh Why Live A Lie
TTITLE7=Yellow Mama
TTITLE8=Tomorrow Never Comes
TTITLE9=Runaway Train
EXTD=YEAR: 2007
EXTT0=
EXTT1=
EXTT2=
EXTT3=
EXTT4=
EXTT5=
EXTT6=
EXTT7=
EXTT8=
EXTT9=
PLAYORDER=
